<?xml version="1.0" encoding="UTF-8" standalone="no"?><svg xmlns:svg="http://www.w3.org/2000/svg" xmlns="http://www.w3.org/2000/svg" xmlns:xlink="http://www.w3.org/1999/xlink" version="1.0" width="64px" height="64px" viewBox="0 0 128 128" xml:space="preserve"><g><path d="M64 128a64 64 0 1 1 64-64 64 64 0 0 1-64 64zm0-115.75A51.75 51.75 0 1 0 115.75 64 51.75 51.75 0 0 0 64 12.25z" fill="#9dc0d3"/><path d="M64 14.75a6.73 6.73 0 0 1 6.75 6.7V38.8a6.75 6.75 0 0 1-13.5 0V21.45a6.73 6.73 0 0 1 6.75-6.7z" fill="#9dc0d3"/><path d="M64 14.75a6.73 6.73 0 0 1 6.75 6.7V38.8a6.75 6.75 0 0 1-13.5 0V21.45a6.73 6.73 0 0 1 6.75-6.7z" fill="#e5eef3" transform="rotate(45 64 64)"/><path d="M64 14.75a6.73 6.73 0 0 1 6.75 6.7V38.8a6.75 6.75 0 0 1-13.5 0V21.45a6.73 6.73 0 0 1 6.75-6.7z" fill="#dde9f0" transform="rotate(90 64 64)"/><path d="M64 14.75a6.73 6.73 0 0 1 6.75 6.7V38.8a6.75 6.75 0 0 1-13.5 0V21.45a6.73 6.73 0 0 1 6.75-6.7z" fill="#d4e4ec" transform="rotate(135 64 64)"/><path d="M64 14.75a6.73 6.73 0 0 1 6.75 6.7V38.8a6.75 6.75 0 0 1-13.5 0V21.45a6.73 6.73 0 0 1 6.75-6.7z" fill="#ccdee8" transform="rotate(180 64 64)"/><path d="M64 14.75a6.73 6.73 0 0 1 6.75 6.7V38.8a6.75 6.75 0 0 1-13.5 0V21.45a6.73 6.73 0 0 1 6.75-6.7z" fill="#c3d9e4" transform="rotate(225 64 64)"/><path d="M64 14.75a6.73 6.73 0 0 1 6.75 6.7V38.8a6.75 6.75 0 0 1-13.5 0V21.45a6.73 6.73 0 0 1 6.75-6.7z" fill="#bbd3e0" transform="rotate(270 64 64)"/><path d="M64 14.75a6.73 6.73 0 0 1 6.75 6.7V38.8a6.75 6.75 0 0 1-13.5 0V21.45a6.73 6.73 0 0 1 6.75-6.7z" fill="#b3cedd" transform="rotate(315 64 64)"/><animateTransform attributeName="transform" type="rotate" values="0 64 64;45 64 64;90 64 64;135 64 64;180 64 64;225 64 64;270 64 64;315 64 64" calcMode="discrete" dur="720ms" repeatCount="indefinite"></animateTransform></g></svg>