<!DOCTYPE svg PUBLIC "-//W3C//DTD SVG 1.1//EN" "http://www.w3.org/Graphics/SVG/1.1/DTD/svg11.dtd">
<!-- Uploaded to: SVG Repo, www.svgrepo.com, Transformed by: SVG Repo Mixer Tools -->
<svg width="800px" height="800px" viewBox="-2.4 -2.4 28.80 28.80" fill="none" xmlns="http://www.w3.org/2000/svg" stroke="#ffffff" transform="matrix(1, 0, 0, 1, 0, 0)rotate(0)">
<g id="SVGRepo_bgCarrier" stroke-width="0">
<rect x="-2.4" y="-2.4" width="28.80" height="28.80" rx="2.3040000000000003" fill="#ffffff" strokewidth="0"/>
</g>
<g id="SVGRepo_tracerCarrier" stroke-linecap="round" stroke-linejoin="round"/>
<g id="SVGRepo_iconCarrier"> <path d="M16.5 22C18.9853 22 21 17.5228 21 12C21 6.47715 18.9853 2 16.5 2" stroke="#000000" stroke-width="1.5"/> <path d="M12 12C12 17.5228 9.98528 22 7.5 22C5.01472 22 3 17.5228 3 12C3 6.47715 5.01472 2 7.5 2C9.98528 2 12 6.47715 12 12Z" stroke="#000000" stroke-width="1.5"/> <path d="M7.5 2L16.5 2" stroke="#000000" stroke-width="1.5"/> <path d="M7.5 22L16.5 22" stroke="#000000" stroke-width="1.5"/> <path opacity="0.5" d="M9 12C9 15.3137 8.32843 18 7.5 18C6.67157 18 6 15.3137 6 12C6 8.68629 6.67157 6 7.5 6C8.32843 6 9 8.68629 9 12ZM9 12H8" stroke="#000000" stroke-width="1.5" stroke-linecap="round"/> </g>
</svg>